<svg width="1515" height="595" viewBox="0 0 1515 595" fill="none" xmlns="http://www.w3.org/2000/svg">
<g clip-path="url(#clip0)">
<path d="M1198.89 35.2609C1179.41 98.5812 1183.09 138.28 1209.95 154.357C1250.23 178.473 1346.02 188.12 1386.05 240.433C1426.09 292.746 1548.17 252.305 1569.05 162.519C1589.93 72.7336 1627.52 -65.6552 1429.29 -65.6552C1297.15 -65.6552 1220.35 -32.0172 1198.89 35.2609H1198.89Z" fill="#FFFA72"/>
<path d="M874.402 160.282C819.839 337.579 830.157 448.736 905.351 493.752C1018.14 561.277 1286.34 588.286 1398.45 734.765C1510.55 881.241 1852.37 768.005 1910.83 516.605C1969.29 265.206 2074.55 -122.283 1519.52 -122.283C1149.51 -122.283 934.47 -28.0963 874.404 160.282H874.402Z" fill="#D6F2FF"/>
<path d="M901.443 149.864C849.803 317.663 859.569 422.865 930.734 465.47C1037.49 529.377 1291.32 554.939 1397.42 693.571C1503.52 832.2 1827.02 725.03 1882.35 487.098C1937.68 249.167 2037.29 -117.564 1512.01 -117.564C1161.81 -117.564 958.293 -28.423 901.444 149.864H901.443Z" fill="#C7E1F3"/>
<path d="M928.484 139.445C879.767 297.746 888.98 396.993 956.117 437.186C1056.83 497.476 1296.29 521.592 1396.39 652.376C1496.48 783.158 1801.67 682.055 1853.87 457.591C1906.06 233.127 2000.04 -112.845 1504.49 -112.845C1174.11 -112.845 982.116 -28.7498 928.485 139.445H928.484Z" fill="#B8CFE6"/>
<path d="M955.525 129.027C909.731 277.83 918.391 371.122 981.5 408.904C1076.17 465.576 1301.26 488.245 1395.35 611.182C1489.44 734.117 1776.32 639.08 1825.39 428.084C1874.45 217.088 1962.79 -108.126 1496.97 -108.126C1186.42 -108.126 1005.94 -29.0765 955.526 129.027H955.525Z" fill="#A9BEDA"/>
<path d="M982.566 118.609C939.695 257.913 947.802 345.251 1006.88 380.621C1095.51 433.676 1306.23 454.897 1394.32 569.988C1482.4 685.076 1750.97 596.105 1796.9 398.577C1842.84 201.048 1925.54 -103.407 1489.45 -103.407C1198.72 -103.407 1029.76 -29.4032 982.567 118.609H982.566Z" fill="#9AADCE"/>
<path d="M1009.61 108.19C969.659 237.997 977.213 319.379 1032.27 352.338C1114.85 401.775 1311.21 421.55 1393.29 528.794C1475.36 636.035 1725.62 553.13 1768.42 369.069C1811.22 185.009 1888.28 -98.6879 1481.93 -98.6879C1211.02 -98.6879 1053.58 -29.73 1009.61 108.19H1009.61Z" fill="#8B9BC1"/>
<path d="M1036.65 97.7716C999.623 218.08 1006.62 293.508 1057.65 324.055C1134.19 369.875 1316.18 388.203 1392.25 487.599C1468.32 586.993 1700.27 510.154 1739.94 339.562C1779.61 168.97 1851.03 -93.969 1474.41 -93.969C1223.33 -93.969 1077.41 -30.0567 1036.65 97.7716H1036.65Z" fill="#7D8AB5"/>
<path d="M1063.69 87.3532C1029.59 198.164 1036.04 267.637 1083.03 295.772C1153.53 337.975 1321.15 354.856 1391.22 446.405C1461.28 537.952 1674.92 467.18 1711.46 310.055C1747.99 152.93 1813.78 -89.25 1466.89 -89.25C1235.63 -89.25 1101.23 -30.3835 1063.69 87.3532H1063.69Z" fill="#6E79A9"/>
<path d="M1090.73 76.9347C1059.55 178.247 1065.45 241.765 1108.41 267.489C1172.87 306.075 1326.13 321.508 1390.19 405.211C1454.25 488.911 1649.57 424.205 1682.98 280.548C1716.38 136.891 1776.53 -84.5311 1459.37 -84.5311C1247.93 -84.5311 1125.05 -30.7102 1090.73 76.9347H1090.73Z" fill="#5F679C"/>
<path d="M1117.77 66.5163C1089.51 158.331 1094.86 215.894 1133.8 239.206C1192.21 274.174 1331.1 288.161 1389.15 364.016C1447.21 439.87 1624.22 381.23 1654.49 251.041C1684.77 120.852 1739.27 -79.8121 1451.85 -79.8121C1260.24 -79.8121 1148.88 -31.0369 1117.77 66.5163H1117.77Z" fill="#505690"/>
<path d="M1144.81 56.0978C1119.48 138.414 1124.27 190.023 1159.18 210.923C1211.55 242.274 1336.07 254.814 1388.12 322.822C1440.17 390.829 1598.87 338.255 1626.01 221.533C1653.15 104.812 1702.02 -75.0931 1444.33 -75.0931C1272.54 -75.0931 1172.7 -31.3637 1144.81 56.0978H1144.81Z" fill="#414584"/>
<path d="M1171.85 45.6794C1149.44 118.498 1153.68 164.151 1184.56 182.64C1230.89 210.374 1341.04 221.467 1387.09 281.628C1433.13 341.787 1573.52 295.28 1597.53 192.026C1621.54 88.7729 1664.77 -70.3741 1436.81 -70.3741C1284.84 -70.3741 1196.52 -31.6904 1171.85 45.6794H1171.85Z" fill="#323377"/>
</g>
<defs>
<clipPath id="clip0">
<rect width="815" height="595" fill="white" transform="translate(700)"/>
</clipPath>
</defs>
</svg>
